<svg width="0" height="0" style="display: none">
	<symbol viewBox="0 0 20 20" xmlns="http://www.w3.org/2000/svg" id="icon--light">
		<path
			d="M10 0C10.5523 0 11 0.447715 11 1V2C11 2.55228 10.5523 3 10 3C9.44771 3 9 2.55228 9 2V1C9 0.447715 9.44771 0 10 0ZM17.0711 2.92893C17.4616 3.31945 17.4616 3.95261 17.0711 4.34314L16.364 5.05025C15.9735 5.44077 15.3403 5.44077 14.9498 5.05025C14.5593 4.65972 14.5593 4.02656 14.9498 3.63603L15.6569 2.92893C16.0474 2.5384 16.6806 2.5384 17.0711 2.92893ZM2.92893 2.92893C3.31945 2.5384 3.95262 2.5384 4.34314 2.92893L5.05025 3.63603C5.44077 4.02656 5.44077 4.65972 5.05025 5.05025C4.65972 5.44077 4.02656 5.44077 3.63603 5.05025L2.92893 4.34314C2.5384 3.95262 2.5384 3.31945 2.92893 2.92893ZM10 6C7.79086 6 6 7.79086 6 10C6 12.2091 7.79086 14 10 14C12.2091 14 14 12.2091 14 10C14 7.79086 12.2091 6 10 6ZM4 10C4 6.68629 6.68629 4 10 4C13.3137 4 16 6.68629 16 10C16 13.3137 13.3137 16 10 16C6.68629 16 4 13.3137 4 10ZM0 10C0 9.44771 0.447715 9 1 9H2C2.55228 9 3 9.44771 3 10C3 10.5523 2.55228 11 2 11H1C0.447715 11 0 10.5523 0 10ZM17 10C17 9.44771 17.4477 9 18 9H19C19.5523 9 20 9.44771 20 10C20 10.5523 19.5523 11 19 11H18C17.4477 11 17 10.5523 17 10ZM3.63603 14.9497C4.02656 14.5592 4.65972 14.5592 5.05025 14.9497C5.44077 15.3403 5.44077 15.9734 5.05025 16.364L4.34314 17.0711C3.95262 17.4616 3.31945 17.4616 2.92893 17.0711C2.5384 16.6805 2.5384 16.0474 2.92893 15.6568L3.63603 14.9497ZM14.9498 16.364C14.5593 15.9734 14.5593 15.3403 14.9498 14.9497C15.3403 14.5592 15.9735 14.5592 16.364 14.9497L17.0711 15.6568C17.4616 16.0474 17.4616 16.6805 17.0711 17.0711C16.6806 17.4616 16.0474 17.4616 15.6569 17.0711L14.9498 16.364ZM10 17C10.5523 17 11 17.4477 11 18V19C11 19.5523 10.5523 20 10 20C9.44771 20 9 19.5523 9 19V18C9 17.4477 9.44771 17 10 17Z"
		/>
	</symbol>
	<symbol viewBox="0 0 18 18" xmlns="http://www.w3.org/2000/svg" id="icon--dark">
		<path
			d="M6.36077 0.292921C6.6659 0.598042 6.74089 1.06447 6.54678 1.44985C6.04068 2.45471 5.75521 3.59037 5.75521 4.79559C5.75521 8.90968 9.09035 12.2448 13.2044 12.2448C14.4097 12.2448 15.5453 11.9594 16.5502 11.4532C16.9356 11.2591 17.402 11.3341 17.7071 11.6393C18.0122 11.9444 18.0872 12.4108 17.8931 12.7962C16.3396 15.8806 13.1428 18 9.44923 18C4.23056 18 0 13.7695 0 8.5508C0 4.85721 2.11941 1.66041 5.20384 0.106911C5.58923 -0.0871916 6.05565 -0.0122005 6.36077 0.292921ZM3.8217 3.66962C2.68637 4.97743 2 6.68433 2 8.5508C2 12.6649 5.33513 16 9.44923 16C11.3157 16 13.0226 15.3137 14.3304 14.1783C13.9611 14.2222 13.5853 14.2448 13.2044 14.2448C7.98578 14.2448 3.75521 10.0143 3.75521 4.79559C3.75521 4.41474 3.77779 4.03898 3.8217 3.66962Z"
		/>
	</symbol>
	<symbol viewBox="0 0 20 20" xmlns="http://www.w3.org/2000/svg" id="icon--magnify">
		<path
			d="M8 2C4.68629 2 2 4.68629 2 8C2 11.3137 4.68629 14 8 14C11.3137 14 14 11.3137 14 8C14 4.68629 11.3137 2 8 2ZM0 8C0 3.58172 3.58172 0 8 0C12.4183 0 16 3.58172 16 8C16 9.84871 15.3729 11.551 14.3199 12.9056L19.7071 18.2929C20.0976 18.6834 20.0976 19.3166 19.7071 19.7071C19.3166 20.0976 18.6834 20.0976 18.2929 19.7071L12.9056 14.3199C11.551 15.3729 9.84871 16 8 16C3.58172 16 0 12.4183 0 8Z"
		/>
	</symbol>
	<symbol viewBox="0 0 14 19" xmlns="http://www.w3.org/2000/svg" id="icon--location">
		<path
			d="M7 19C5.73693 17.9226 4.56619 16.7415 3.5 15.469C1.9 13.558 8.83662e-07 10.712 8.83662e-07 7.99999C-0.00141728 5.16754 1.70425 2.61338 4.32107 1.52939C6.93789 0.445394 9.95007 1.04523 11.952 3.04899C13.2685 4.3596 14.0059 6.14238 14 7.99999C14 10.712 12.1 13.558 10.5 15.469C9.43382 16.7415 8.26307 17.9226 7 19ZM7 4.99999C5.92821 4.99999 4.93782 5.57179 4.40193 6.49999C3.86603 7.42819 3.86603 8.57179 4.40193 9.49999C4.93782 10.4282 5.92821 11 7 11C8.65686 11 10 9.65684 10 7.99999C10 6.34313 8.65686 4.99999 7 4.99999Z"
		/>
	</symbol>
	<symbol viewBox="0 0 22 17" xmlns="http://www.w3.org/2000/svg" id="icon--twitter">
		<path
			d="M18.995 2.68799C19.8914 2.15208 20.5622 1.30823 20.882 0.313989C20.0397 0.813791 19.118 1.16587 18.157 1.35499C16.8246 -0.0544839 14.7135 -0.397485 13.0034 0.517645C11.2933 1.43277 10.4075 3.37948 10.841 5.26999C7.39062 5.09676 4.17598 3.4669 1.99702 0.785989C0.859855 2.74741 1.44097 5.25477 3.32502 6.51599C2.64373 6.49409 1.97754 6.30963 1.38202 5.97799C1.38202 5.99599 1.38202 6.01399 1.38202 6.03199C1.38241 8.07514 2.82239 9.83507 4.82502 10.24C4.19308 10.4119 3.53022 10.4372 2.88702 10.314C3.45022 12.0613 5.06057 13.2583 6.89602 13.294C5.37585 14.4871 3.49849 15.1342 1.56602 15.131C1.22349 15.1315 0.881226 15.1118 0.541016 15.072C2.50341 16.333 4.78738 17.0023 7.12002 17C10.3653 17.0223 13.484 15.7429 15.7787 13.448C18.0734 11.1531 19.3526 8.03424 19.33 4.78899C19.33 4.60299 19.3257 4.41799 19.317 4.23399C20.1575 3.62659 20.8828 2.87414 21.459 2.01199C20.676 2.35905 19.8455 2.58691 18.995 2.68799Z"
		/>
	</symbol>
	<symbol viewBox="0 0 14 14" xmlns="http://www.w3.org/2000/svg" id="icon--link">
		<path
			fill-rule="evenodd"
			clip-rule="evenodd"
			d="M6.775 2.27506C6.64252 2.41723 6.57039 2.60528 6.57382 2.79958C6.57725 2.99388 6.65596 3.17926 6.79337 3.31668C6.93079 3.45409 7.11617 3.5328 7.31047 3.53623C7.50477 3.53966 7.69282 3.46754 7.835 3.33506L9.085 2.08506C9.2708 1.89924 9.4914 1.75183 9.7342 1.65127C9.977 1.5507 10.2372 1.49894 10.5 1.49894C10.7628 1.49894 11.023 1.5507 11.2658 1.65127C11.5086 1.75183 11.7292 1.89924 11.915 2.08506C12.1008 2.27088 12.2482 2.49148 12.3488 2.73426C12.4493 2.97705 12.5011 3.23727 12.5011 3.50006C12.5011 3.76285 12.4493 4.02306 12.3488 4.26585C12.2482 4.50863 12.1008 4.72923 11.915 4.91506L9.415 7.41506C9.2292 7.60101 9.0087 7.74853 8.76588 7.84917C8.52308 7.94982 8.26283 8.00163 8 8.00163C7.73716 8.00163 7.47691 7.94982 7.23411 7.84917C6.99132 7.74853 6.77074 7.60101 6.585 7.41506C6.44282 7.28258 6.25477 7.21045 6.06047 7.21388C5.86617 7.21731 5.68079 7.29602 5.54337 7.43343C5.40596 7.57085 5.32725 7.75623 5.32382 7.95053C5.32039 8.14483 5.39252 8.33288 5.525 8.47506C5.85001 8.8001 6.23586 9.05796 6.66052 9.23386C7.08518 9.40976 7.54034 9.50026 8 9.50026C8.45965 9.50026 8.91481 9.40976 9.3395 9.23386C9.7641 9.05796 10.15 8.8001 10.475 8.47506L12.975 5.97506C13.6314 5.31864 14.0002 4.42836 14.0002 3.50006C14.0002 2.57175 13.6314 1.68147 12.975 1.02506C12.3186 0.368641 11.4283 -0.00012207 10.5 -0.00012207C9.5717 -0.00012207 8.68141 0.368641 8.02499 1.02506L6.775 2.27506ZM2.085 11.9151C1.89904 11.7293 1.75152 11.5088 1.65088 11.266C1.55023 11.0232 1.49842 10.7629 1.49842 10.5001C1.49842 10.2373 1.55023 9.97696 1.65088 9.73416C1.75152 9.49136 1.89904 9.27076 2.085 9.08506L4.585 6.58506C4.77074 6.3991 4.99132 6.25158 5.23411 6.15094C5.47691 6.05029 5.73716 5.99848 6 5.99848C6.26283 5.99848 6.52308 6.05029 6.76588 6.15094C7.00867 6.25158 7.22925 6.3991 7.415 6.58506C7.55717 6.71754 7.74522 6.78966 7.93952 6.78623C8.13382 6.7828 8.3192 6.70409 8.45662 6.56668C8.59403 6.42926 8.67274 6.24388 8.67617 6.04958C8.6796 5.85528 8.60748 5.66723 8.475 5.52506C8.14999 5.20001 7.76413 4.94217 7.33947 4.76626C6.91481 4.59035 6.45965 4.4998 6 4.4998C5.54034 4.4998 5.08518 4.59035 4.66052 4.76626C4.23586 4.94217 3.85001 5.20001 3.525 5.52506L1.025 8.02505C0.36858 8.68147 -0.000183105 9.57176 -0.000183105 10.5001C-0.000183105 11.4284 0.36858 12.3187 1.025 12.9751C1.68141 13.6315 2.57169 14.0003 3.5 14.0003C4.4283 14.0003 5.31858 13.6315 5.975 12.9751L7.225 11.7251C7.35748 11.5829 7.4296 11.3949 7.42617 11.2006C7.42274 11.0063 7.34403 10.8209 7.20662 10.6835C7.0692 10.5461 6.88382 10.4673 6.68952 10.4639C6.49522 10.4605 6.30717 10.5326 6.165 10.6651L4.915 11.9151C4.72925 12.101 4.50867 12.2486 4.26588 12.3492C4.02308 12.4499 3.76283 12.5017 3.5 12.5017C3.23716 12.5017 2.97691 12.4499 2.73411 12.3492C2.49132 12.2486 2.27074 12.101 2.085 11.9151Z"
		/>
	</symbol>
	<symbol viewBox="0 0 16 16" xmlns="http://www.w3.org/2000/svg" id="icon--organization">
		<path
			fill-rule="evenodd"
			clip-rule="evenodd"
			d="M1.5 14.25C1.5 14.3881 1.61193 14.5 1.75 14.5H4V13.25C4 12.8358 4.33579 12.5 4.75 12.5H7.25C7.66421 12.5 8 12.8358 8 13.25V14.5H10.25C10.3881 14.5 10.5 14.3881 10.5 14.25V1.75C10.5 1.61193 10.3881 1.5 10.25 1.5H1.75C1.61193 1.5 1.5 1.61193 1.5 1.75V14.25ZM1.75 16C0.783502 16 0 15.2165 0 14.25V1.75C0 0.783501 0.783502 0 1.75 0H10.25C11.2165 0 12 0.783501 12 1.75V14.25C12 14.3349 11.994 14.4184 11.9823 14.5001H14.25C14.3881 14.5001 14.5 14.3882 14.5 14.2501V8.28526C14.5 8.20168 14.4582 8.12362 14.3887 8.07725L13.334 7.37412C12.9893 7.14435 12.8962 6.6787 13.126 6.33405C13.3557 5.98941 13.8214 5.89628 14.166 6.12604L15.2207 6.82918C15.7076 7.15374 16 7.70015 16 8.28526V14.2501C16 15.2166 15.2165 16.0001 14.25 16.0001H10.75C10.6818 16.0001 10.6157 15.991 10.5528 15.9739C10.4545 15.9911 10.3533 16 10.25 16H7.25C6.83579 16 6.5 15.6642 6.5 15.25V14H5.5V15.25C5.5 15.6642 5.16421 16 4.75 16H1.75ZM3 3.75C3 3.33579 3.33579 3 3.75 3H4.25C4.66421 3 5 3.33579 5 3.75C5 4.16421 4.66421 4.5 4.25 4.5H3.75C3.33579 4.5 3 4.16421 3 3.75ZM3.75 6C3.33579 6 3 6.33579 3 6.75C3 7.16421 3.33579 7.5 3.75 7.5H4.25C4.66421 7.5 5 7.16421 5 6.75C5 6.33579 4.66421 6 4.25 6H3.75ZM3 9.75C3 9.33579 3.33579 9 3.75 9H4.25C4.66421 9 5 9.33579 5 9.75C5 10.1642 4.66421 10.5 4.25 10.5H3.75C3.33579 10.5 3 10.1642 3 9.75ZM7.75 9C7.33579 9 7 9.33579 7 9.75C7 10.1642 7.33579 10.5 7.75 10.5H8.25C8.66421 10.5 9 10.1642 9 9.75C9 9.33579 8.66421 9 8.25 9H7.75ZM7 6.75C7 6.33579 7.33579 6 7.75 6H8.25C8.66421 6 9 6.33579 9 6.75C9 7.16421 8.66421 7.5 8.25 7.5H7.75C7.33579 7.5 7 7.16421 7 6.75ZM7.75 3C7.33579 3 7 3.33579 7 3.75C7 4.16421 7.33579 4.5 7.75 4.5H8.25C8.66421 4.5 9 4.16421 9 3.75C9 3.33579 8.66421 3 8.25 3H7.75Z"
		/>
	</symbol>
</svg>
